:SAMPLES-PER-SECOND 30
:FULLY-SPECIFIED
:DEGREES
172
root  -43.6762 34.8657 22.5856 -173.19 44.9101 177.561
RightUpLeg  -4.56592 -25.5533 -6.73455
RightLeg  7.17581 -11.084 -0.668291
RightFoot  7.16226 0.112464 -1.20032
RightToes  -32.7788 -0.164218 -0.27143
Spine  -1.39055 0.8914 0.145618
Spine1  -2.72496 1.85722 0.983941
HEad  -39.8665 39.6624 4.6874
LeftShoulder1  -1.94126e-019 -3.10601e-018 -2.51263e-017
LeftArm  -20.1842 26.1588 -72.6086
LeftForeArm  23.2751 -56.8945 -15.3833
LeftHand  -0.38675 1.78017 12.3273
RightShoulder  -4.96962e-017 0 -2.36833e-017
RightArm  -16.7194 -25.2725 72.9944
RightForeArm  50.013 35.1244 5.03186
RightHand  -0.531061 -0.924927 -13.7613
LeftUpLeg  -10.3677 -6.14318 3.03416
LeftLeg  6.47258 10.7286 0.519018
LeftFoot  8.92093 -0.131321 1.84486
LeftToes  -26.8053 2.32378e-006 -5.43956e-008
173
root  -43.7347 34.8616 22.4373 -173.602 45.1899 177.245
RightUpLeg  -4.52003 -25.445 -7.32758
RightLeg  7.57532 -10.8912 -0.73261
RightFoot  7.20107 0.112039 -1.18561
RightToes  -33.1323 -0.165343 -0.2724
Spine  -1.36187 1.00162 0.154386
Spine1  -2.66209 2.07999 0.992109
HEad  -40.1983 39.0403 4.12652
LeftShoulder1  -1.94126e-019 -3.10601e-018 -2.51263e-017
LeftArm  -20.9136 26.0821 -71.0959
LeftForeArm  23.7531 -58.3857 -16.3656
LeftHand  -0.391447 1.73986 12.3455
RightShoulder  -4.96962e-017 0 -2.36833e-017
RightArm  -16.9556 -24.9823 73.0406
RightForeArm  50.0803 35.472 5.11467
RightHand  -0.536637 -0.98796 -14.0986
LeftUpLeg  -10.1054 -5.87622 2.53167
LeftLeg  6.6348 10.6911 0.547366
LeftFoot  8.65731 -0.1232 1.78906
LeftToes  -26.8437 2.32378e-006 -5.43956e-008
174
root  -43.783 34.8561 22.3016 -173.906 45.478 177.034
RightUpLeg  -4.44205 -25.308 -7.81309
RightLeg  7.8436 -10.6189 -0.764213
RightFoot  7.25392 0.111122 -1.16311
RightToes  -33.3355 -0.166384 -0.27331
Spine  -1.33979 1.05426 0.185385
Spine1  -2.61362 2.18629 1.04874
HEad  -40.75 38.2996 4.04255
LeftShoulder1  -1.94126e-019 -3.10601e-018 -2.51263e-017
LeftArm  -21.5563 26.2263 -69.6401
LeftForeArm  24.8445 -60.0749 -17.5417
LeftHand  -0.405519 1.77344 12.9127
RightShoulder  -4.96962e-017 0 -2.36833e-017
RightArm  -17.2019 -24.903 73.0819
RightForeArm  49.7693 35.9866 5.25875
RightHand  -0.574835 -0.633402 -14.0106
LeftUpLeg  -9.99867 -5.70545 2.13813
LeftLeg  7.04415 10.7828 0.628765
LeftFoot  8.24784 -0.112804 1.72598
LeftToes  -26.5667 2.32378e-006 -5.43956e-008
175
root  -43.8172 34.8495 22.1897 -174.076 45.9223 176.938
RightUpLeg  -4.42589 -24.9999 -8.11411
RightLeg  7.9733 -10.4581 -0.776454
RightFoot  7.34363 0.112289 -1.16057
RightToes  -33.5061 -0.167319 -0.274136
Spine  -1.32809 1.07865 0.212899
Spine1  -2.58752 2.23711 1.09742
HEad  -41.1771 37.8474 3.89239
LeftShoulder1  -1.94126e-019 -3.10601e-018 -2.51263e-017
LeftArm  -22.2509 26.6197 -68.1941
LeftForeArm  26.246 -62.0203 -19.0692
LeftHand  -0.40407 1.89174 13.2904
RightShoulder  -4.96962e-017 0 -2.36833e-017
RightArm  -17.0112 -25.0565 73.2247
RightForeArm  49.7835 36.5223 5.39277
RightHand  -0.589448 -0.627303 -14.3477
LeftUpLeg  -9.9929 -5.43339 1.86834
LeftLeg  7.57558 10.9406 0.739049
LeftFoot  7.78877 -0.102114 1.66149
LeftToes  -26.3784 2.32378e-006 -5.43956e-008
176
root  -43.8373 34.8429 22.0876 -174.185 46.5402 176.873
RightUpLeg  -4.4212 -24.5689 -8.32894
RightLeg  7.93929 -10.2679 -0.756411
RightFoot  7.47478 0.114962 -1.16092
RightToes  -33.6982 -0.168121 -0.274854
Spine  -1.33222 1.10799 0.227299
Spine1  -2.59382 2.29691 1.12085
HEad  -41.6687 37.4197 3.60713
LeftShoulder1  -1.94126e-019 -3.10601e-018 -2.51263e-017
LeftArm  -23.3348 27.1563 -66.9301
LeftForeArm  27.5331 -64.1192 -21.0339
LeftHand  -0.416639 1.76613 13.2463
RightShoulder  -4.96962e-017 0 -2.36833e-017
RightArm  -16.7856 -25.4055 73.4532
RightForeArm  49.8602 36.9055 5.4866
RightHand  -0.612978 -0.596404 -14.8248
LeftUpLeg  -10.0272 -5.22015 1.65289
LeftLeg  8.16048 11.3101 0.878943
LeftFoot  7.33754 -0.0937923 1.62424
LeftToes  -26.0982 2.32378e-006 -5.43956e-008
177
root  -43.843 34.8344 22.0193 -174.168 47.1506 176.925
RightUpLeg  -4.41893 -24.1097 -8.37648
RightLeg  7.77157 -10.1335 -0.716968
RightFoot  7.61235 0.118754 -1.16825
RightToes  -33.782 -0.168766 -0.275439
Spine  -1.35074 1.08804 0.227013
Spine1  -2.6307 2.2593 1.11477
HEad  -42.2561 36.9558 3.39541
LeftShoulder1  -1.94126e-019 -3.10601e-018 -2.51263e-017
LeftArm  -24.5215 27.8141 -65.7351
LeftForeArm  29.25 -66.6657 -23.9527
LeftHand  -0.409971 1.87287 13.4171
RightShoulder  -4.96962e-017 0 -2.36833e-017
RightArm  -16.6395 -25.8525 73.8087
RightForeArm  49.8474 36.9888 5.50823
RightHand  -0.637794 -0.50154 -15.1318
LeftUpLeg  -10.1348 -5.00073 1.58165
LeftLeg  8.75871 11.6573 1.0272
LeftFoot  6.9171 -0.086016 1.58472
LeftToes  -25.8735 2.32378e-006 -5.43956e-008
178
root  -43.8055 34.8351 21.9204 -174.178 48.1287 176.913
RightUpLeg  -4.34608 -23.6911 -8.48247
RightLeg  7.39438 -9.61026 -0.617101
RightFoot  7.81057 0.119352 -1.13283
RightToes  -33.7639 -0.16923 -0.275868
Spine  -1.37897 1.1333 0.190638
Spine1  -2.68822 2.35152 1.03482
HEad  -43.0586 35.9679 3.01719
LeftShoulder1  -1.94126e-019 -3.10601e-018 -2.51263e-017
LeftArm  -25.6483 28.5809 -64.5721
LeftForeArm  33.0212 -69.6388 -28.2148
LeftHand  -0.402195 2.01701 13.7082
RightShoulder  -4.96962e-017 0 -2.36833e-017
RightArm  -16.5478 -26.4963 74.1877
RightForeArm  49.9728 36.8389 5.46284
RightHand  -0.660354 -0.437153 -15.4661
LeftUpLeg  -9.89224 -4.3705 1.44187
LeftLeg  8.89152 12.0036 1.08512
LeftFoot  6.57248 -0.0800052 1.55485
LeftToes  -25.5817 2.32378e-006 -5.43956e-008
179
root  -43.7474 34.8282 21.8737 -173.954 49.049 177.111
RightUpLeg  -4.30355 -23.2955 -8.3159
RightLeg  6.85721 -9.1453 -0.501873
RightFoot  8.09511 0.120152 -1.11524
RightToes  -34.1601 -0.169488 -0.276115
Spine  -1.4642 1.158 0.148752
Spine1  -2.86039 2.40667 0.940162
HEad  -44.221 33.3647 2.54794
LeftShoulder1  -1.94126e-019 -3.10601e-018 -2.51263e-017
LeftArm  -26.9549 29.1899 -63.2181
LeftForeArm  40.8517 -73.5421 -36.498
LeftHand  -0.422219 1.74121 13.3369
RightShoulder  -4.96962e-017 0 -2.36833e-017
RightArm  -17.1362 -27.351 74.7408
RightForeArm  50.074 36.5457 5.38109
RightHand  -0.687419 -0.238413 -15.4935
LeftUpLeg  -9.72263 -3.42723 1.52691
LeftLeg  8.91986 11.9988 1.09062
LeftFoot  6.27814 -0.0743408 1.491
LeftToes  -25.4719 2.32378e-006 -5.43956e-008
180
root  -43.6406 34.8262 21.816 -173.785 50.0613 177.22
RightUpLeg  -4.14369 -23.0733 -8.21121
RightLeg  6.18334 -8.43693 -0.36425
RightFoot  8.30479 0.116383 -1.04758
RightToes  -34.2163 -0.169515 -0.276158
Spine  -1.65527 1.146 0.0286792
Spine1  -3.24247 2.39426 0.677444
HEad  -45.5483 29.0646 2.05664
LeftShoulder1  -1.94126e-019 -3.10601e-018 -2.51263e-017
LeftArm  -27.8222 29.4889 -60.9938
LeftForeArm  59.0462 -77.9809 -56.1351
LeftHand  -0.557576 0.622332 13.6009
RightShoulder  -4.96962e-017 0 -2.36833e-017
RightArm  -18.3382 -28.4374 75.4755
RightForeArm  49.8579 36.1988 5.30168
RightHand  -0.687588 -0.168223 -15.296
LeftUpLeg  -9.23696 -2.45359 1.57071
LeftLeg  8.44511 12.0834 0.998161
LeftFoot  6.19454 -0.0730868 1.48039
LeftToes  -25.371 2.32378e-006 -5.43956e-008
181
root  -43.505 34.8283 21.7832 -173.735 50.8458 177.273
RightUpLeg  -3.84213 -22.9312 -8.13595
RightLeg  5.55715 -7.83545 -0.25302
RightFoot  8.42191 0.1119 -0.979549
RightToes  -34.1873 -0.169287 -0.275973
Spine  -1.89756 1.05854 -0.0803343
Spine1  -3.71617 2.23954 0.426673
HEad  -46.8916 22.1777 1.12535
LeftShoulder1  -1.94126e-019 -3.10601e-018 -2.51263e-017
LeftArm  -29.3939 27.4773 -57.8825
LeftForeArm  85.918 -79.916 -82.5341
LeftHand  -0.522826 0.208276 11.7711
RightShoulder  -4.96962e-017 0 -2.36833e-017
RightArm  -19.6983 -29.7088 76.0812
RightForeArm  49.7019 36.1702 5.30193
RightHand  -0.676945 -0.376432 -15.6656
LeftUpLeg  -8.55815 -1.90878 1.65581
LeftLeg  7.69605 12.3473 0.85867
LeftFoot  6.32377 -0.0772241 1.53523
LeftToes  -25.5016 2.32378e-006 -5.43956e-008
182
root  -43.3461 34.8318 21.7813 -173.801 51.2814 177.306
RightUpLeg  -3.47005 -22.5965 -8.05493
RightLeg  5.22028 -7.73834 -0.204537
RightFoot  8.31283 0.109398 -0.952976
RightToes  -33.9751 -0.168779 -0.275534
Spine  -2.16366 0.957675 -0.2718
Spine1  -4.22544 2.07702 -0.0135366
HEad  -47.8075 13.3765 -0.457617
LeftShoulder1  -1.94126e-019 -3.10601e-018 -2.51263e-017
LeftArm  -31.3315 21.6751 -53.5556
LeftForeArm  100.003 -80.0164 -95.2877
LeftHand  -0.629957 -0.838851 11.8676
RightShoulder  -4.96962e-017 0 -2.36833e-017
RightArm  -20.0248 -31.015 76.3857
RightForeArm  49.1763 36.1047 5.31225
RightHand  -0.669795 -0.552045 -16.0459
LeftUpLeg  -7.69084 -1.73125 1.79963
LeftLeg  6.66549 12.6152 0.651284
LeftFoot  6.6515 -0.0856413 1.63524
LeftToes  -25.6496 2.32378e-006 -5.43956e-008
183
root  -43.1542 34.8343 21.8003 -174.234 51.5887 177.301
RightUpLeg  -2.87101 -22.0126 -8.06887
RightLeg  5.25788 -7.94852 -0.21525
RightFoot  8.05009 0.107226 -0.947521
RightToes  -33.8481 -0.167966 -0.274818
Spine  -2.34364 0.85481 -0.468557
Spine1  -4.55268 1.92719 -0.470446
HEad  -49.2993 3.86241 -3.59903
LeftShoulder1  -1.94126e-019 -3.10601e-018 -2.51263e-017
LeftArm  -31.6909 12.1399 -47.9915
LeftForeArm  78.6835 -79.6447 -72.5338
LeftHand  -0.766159 -0.10878 16.2346
RightShoulder  -4.96962e-017 0 -2.36833e-017
RightArm  -19.2593 -31.6989 75.9738
RightForeArm  49.5314 35.9287 5.25328
RightHand  -0.698557 -0.258247 -15.801
LeftUpLeg  -6.40552 -1.37458 1.96716
LeftLeg  5.45453 12.5969 0.385979
LeftFoot  7.08371 -0.0968864 1.72677
LeftToes  -25.756 2.32378e-006 -5.43956e-008
184
root  -42.9646 34.8382 21.8582 -174.435 51.9749 177.512
RightUpLeg  -2.56837 -21.0826 -7.82177
RightLeg  5.60607 -8.45996 -0.280224
RightFoot  7.69847 0.103943 -0.966073
RightToes  -33.4765 -0.166823 -0.273801
Spine  -2.5789 0.667664 -0.548153
Spine1  -4.98859 1.60711 -0.668784
HEad  -50.2518 -3.80726 -6.68953
LeftShoulder1  -1.94126e-019 -3.10601e-018 -2.51263e-017
LeftArm  -33.3896 0.111453 -42.3616
LeftForeArm  39.9393 -71.29 -30.5029
LeftHand  -0.914032 0.0660054 19.9288
RightShoulder  -4.96962e-017 0 -2.36833e-017
RightArm  -18.0953 -31.4325 74.9688
RightForeArm  51.0301 35.1717 4.99855
RightHand  -0.736854 -0.0534004 -16.039
LeftUpLeg  -5.31301 -1.08309 2.3255
LeftLeg  4.46248 12.7004 0.171027
LeftFoot  7.47656 -0.108909 1.82829
LeftToes  -25.9653 2.32378e-006 -5.43956e-008
